<mxfile host="65bd71144e" scale="3" border="0">
    <diagram id="LzTGRrPrDBO6Tm46XuKC" name="Page-1">
        <mxGraphModel dx="2372" dy="1586" grid="0" gridSize="10" guides="1" tooltips="1" connect="1" arrows="1" fold="1" page="0" pageScale="1" pageWidth="1600" pageHeight="1200" math="0" shadow="0">
            <root>
                <mxCell id="0"/>
                <mxCell id="1" parent="0"/>
                <mxCell id="256" value="" style="rounded=0;whiteSpace=wrap;html=1;" vertex="1" parent="1">
                    <mxGeometry x="-1179" y="-760" width="935" height="60" as="geometry"/>
                </mxCell>
                <mxCell id="257" value="booting image" style="rounded=0;whiteSpace=wrap;html=1;" vertex="1" parent="1">
                    <mxGeometry x="-1179" y="-760" width="213" height="60" as="geometry"/>
                </mxCell>
                <mxCell id="258" value="info block" style="rounded=0;whiteSpace=wrap;html=1;fillColor=#f5f5f5;fontColor=#333333;strokeColor=#666666;" vertex="1" parent="1">
                    <mxGeometry x="-966" y="-760" width="113" height="60" as="geometry"/>
                </mxCell>
                <mxCell id="259" value="&lt;span style=&quot;color: rgb(0, 0, 0);&quot;&gt;origin&amp;nbsp;&lt;/span&gt;firmware" style="rounded=0;whiteSpace=wrap;html=1;" vertex="1" parent="1">
                    <mxGeometry x="-853" y="-760" width="305" height="60" as="geometry"/>
                </mxCell>
                <mxCell id="260" value="&lt;span style=&quot;color: rgb(0, 0, 0);&quot;&gt;new&amp;nbsp;&lt;/span&gt;firmware" style="rounded=0;whiteSpace=wrap;html=1;" vertex="1" parent="1">
                    <mxGeometry x="-548" y="-760" width="305" height="60" as="geometry"/>
                </mxCell>
                <mxCell id="262" value="" style="rounded=0;whiteSpace=wrap;html=1;" vertex="1" parent="1">
                    <mxGeometry x="-1179" y="-606" width="932" height="60" as="geometry"/>
                </mxCell>
                <mxCell id="264" value="device info&lt;div&gt;(serial number, MAC addres, certificates,...)&amp;nbsp;&lt;/div&gt;" style="rounded=0;whiteSpace=wrap;html=1;fillColor=#f5f5f5;fontColor=#333333;strokeColor=#666666;" vertex="1" parent="1">
                    <mxGeometry x="-1179" y="-606" width="402" height="60" as="geometry"/>
                </mxCell>
                <mxCell id="265" value="failure count" style="rounded=0;whiteSpace=wrap;html=1;fillColor=#f5f5f5;fontColor=#333333;strokeColor=#666666;" vertex="1" parent="1">
                    <mxGeometry x="-778" y="-606" width="177" height="60" as="geometry"/>
                </mxCell>
                <mxCell id="266" value="origin firmware address" style="rounded=0;whiteSpace=wrap;html=1;fillColor=#f5f5f5;fontColor=#333333;strokeColor=#666666;" vertex="1" parent="1">
                    <mxGeometry x="-601" y="-606" width="177" height="60" as="geometry"/>
                </mxCell>
                <mxCell id="267" value="new firmware address" style="rounded=0;whiteSpace=wrap;html=1;fillColor=#f5f5f5;fontColor=#333333;strokeColor=#666666;" vertex="1" parent="1">
                    <mxGeometry x="-424" y="-606" width="177" height="60" as="geometry"/>
                </mxCell>
                <mxCell id="268" value="" style="endArrow=none;html=1;exitX=0;exitY=0;exitDx=0;exitDy=0;entryX=1;entryY=1;entryDx=0;entryDy=0;" edge="1" parent="1" source="264" target="257">
                    <mxGeometry width="50" height="50" relative="1" as="geometry">
                        <mxPoint x="-762" y="-566" as="sourcePoint"/>
                        <mxPoint x="-712" y="-616" as="targetPoint"/>
                    </mxGeometry>
                </mxCell>
                <mxCell id="269" value="" style="endArrow=none;html=1;exitX=1;exitY=0;exitDx=0;exitDy=0;entryX=1;entryY=1;entryDx=0;entryDy=0;" edge="1" parent="1" source="267" target="258">
                    <mxGeometry width="50" height="50" relative="1" as="geometry">
                        <mxPoint x="-1169" y="-628" as="sourcePoint"/>
                        <mxPoint x="-956" y="-690" as="targetPoint"/>
                    </mxGeometry>
                </mxCell>
                <mxCell id="270" value="0x00&lt;span style=&quot;color: rgb(0, 0, 0);&quot;&gt;0000&lt;/span&gt;" style="text;html=1;align=center;verticalAlign=middle;resizable=0;points=[];autosize=1;strokeColor=none;fillColor=none;" vertex="1" parent="1">
                    <mxGeometry x="-1198" y="-695" width="71" height="26" as="geometry"/>
                </mxCell>
            </root>
        </mxGraphModel>
    </diagram>
</mxfile>